<svg width="300" height="300" viewBox="0 0 300 300" fill="none" xmlns="http://www.w3.org/2000/svg">
<rect width="300" height="300" fill="white"/>
<path d="M145 31C210.722 31 264 84.2671 264 149.975C264 215.684 210.722 268.951 145 268.951L71.7875 269C46.5503 269 26.0915 248.545 26.0915 223.313L26 149.975C26 84.2671 79.2781 31 145 31Z" fill="#0088FF"/>
<path d="M189 169C178.887 177.524 162.387 176.458 156 169" stroke="white" stroke-width="3" stroke-linecap="round"/>
<path d="M106 148.398C106 137.133 112.104 128 119.634 128C127.164 128 133.268 137.133 133.268 148.398C133.268 159.664 127.164 168.796 119.634 168.796C112.104 168.796 106 159.664 106 148.398Z" fill="white"/>
<path d="M203.732 148.602C203.732 137.336 209.836 128.204 217.366 128.204C224.896 128.204 231 137.336 231 148.602C231 159.867 224.896 169 217.366 169C209.836 169 203.732 159.867 203.732 148.602Z" fill="white"/>
</svg>
