<svg width="1087" height="217" viewBox="0 0 1087 217" fill="none" xmlns="http://www.w3.org/2000/svg">
<rect width="1087" height="217" fill="white"/>
<circle cx="63.9344" cy="63.9344" r="63.9344" transform="matrix(-1 0 0 1 820.869 54)" fill="#0088FF"/>
<rect width="85.9808" height="85.9808" rx="18" transform="matrix(-1 0 0 1 820.869 54)" fill="#0088FF"/>
<path d="M710.14 100C709.807 100 709.527 99.8667 709.3 99.6C709.087 99.3333 708.98 99.0067 708.98 98.62C708.98 98.3667 709.04 98.14 709.16 97.94L712.24 93.12C712.387 92.8933 712.507 92.7333 712.6 92.64C712.693 92.5467 712.793 92.48 712.9 92.44H710.1C709.207 92.44 708.76 92.0333 708.76 91.22C708.76 90.4067 709.207 90 710.1 90H715.04C715.4 90 715.7 90.1333 715.94 90.4C716.18 90.6667 716.3 90.9933 716.3 91.38C716.3 91.6333 716.24 91.86 716.12 92.06L712.86 96.92C712.62 97.2933 712.347 97.5067 712.04 97.56H715.44C716.333 97.56 716.78 97.98 716.78 98.82C716.78 99.6067 716.333 100 715.44 100H710.14Z" fill="#A8D6FF"/>
<path d="M696.21 89C695.71 89 695.29 88.8 694.95 88.4C694.63 88 694.47 87.51 694.47 86.93C694.47 86.55 694.56 86.21 694.74 85.91L699.36 78.68C699.58 78.34 699.76 78.1 699.9 77.96C700.04 77.82 700.19 77.72 700.35 77.66H696.15C694.81 77.66 694.14 77.05 694.14 75.83C694.14 74.61 694.81 74 696.15 74H703.56C704.1 74 704.55 74.2 704.91 74.6C705.27 75 705.45 75.49 705.45 76.07C705.45 76.45 705.36 76.79 705.18 77.09L700.29 84.38C699.93 84.94 699.52 85.26 699.06 85.34H704.16C705.5 85.34 706.17 85.97 706.17 87.23C706.17 88.41 705.5 89 704.16 89H696.21Z" fill="#A8D6FF"/>
<path d="M678.852 73C678.252 73 677.748 72.76 677.34 72.28C676.956 71.8 676.764 71.212 676.764 70.516C676.764 70.06 676.872 69.652 677.088 69.292L682.632 60.616C682.896 60.208 683.112 59.92 683.28 59.752C683.448 59.584 683.628 59.464 683.82 59.392H678.78C677.172 59.392 676.368 58.66 676.368 57.196C676.368 55.732 677.172 55 678.78 55H687.672C688.32 55 688.86 55.24 689.292 55.72C689.724 56.2 689.94 56.788 689.94 57.484C689.94 57.94 689.832 58.348 689.616 58.708L683.748 67.456C683.316 68.128 682.824 68.512 682.272 68.608H688.392C690 68.608 690.804 69.364 690.804 70.876C690.804 72.292 690 73 688.392 73H678.852Z" fill="#A8D6FF"/>
<circle cx="330.934" cy="117.934" r="63.9344" fill="#0088FF"/>
<rect x="267" y="54" width="85.9808" height="85.9808" rx="18" fill="#0088FF"/>
<path d="M367.869 128C362.905 146 351.772 141.101 356.949 125" stroke="#DEEFFF" stroke-width="3" stroke-linecap="round"/>
<path d="M332.13 126C327.167 144 316.034 139.101 321.21 123" stroke="#DEEFFF" stroke-width="3" stroke-linecap="round"/>
<path d="M372.14 100C371.807 100 371.527 99.8667 371.3 99.6C371.087 99.3333 370.98 99.0067 370.98 98.62C370.98 98.3667 371.04 98.14 371.16 97.94L374.24 93.12C374.387 92.8933 374.507 92.7333 374.6 92.64C374.693 92.5467 374.793 92.48 374.9 92.44H372.1C371.207 92.44 370.76 92.0333 370.76 91.22C370.76 90.4067 371.207 90 372.1 90H377.04C377.4 90 377.7 90.1333 377.94 90.4C378.18 90.6667 378.3 90.9933 378.3 91.38C378.3 91.6333 378.24 91.86 378.12 92.06L374.86 96.92C374.62 97.2933 374.347 97.5067 374.04 97.56H377.44C378.333 97.56 378.78 97.98 378.78 98.82C378.78 99.6067 378.333 100 377.44 100H372.14Z" fill="#A8D6FF"/>
<path d="M383.21 89C382.71 89 382.29 88.8 381.95 88.4C381.63 88 381.47 87.51 381.47 86.93C381.47 86.55 381.56 86.21 381.74 85.91L386.36 78.68C386.58 78.34 386.76 78.1 386.9 77.96C387.04 77.82 387.19 77.72 387.35 77.66H383.15C381.81 77.66 381.14 77.05 381.14 75.83C381.14 74.61 381.81 74 383.15 74H390.56C391.1 74 391.55 74.2 391.91 74.6C392.27 75 392.45 75.49 392.45 76.07C392.45 76.45 392.36 76.79 392.18 77.09L387.29 84.38C386.93 84.94 386.52 85.26 386.06 85.34H391.16C392.5 85.34 393.17 85.97 393.17 87.23C393.17 88.41 392.5 89 391.16 89H383.21Z" fill="#A8D6FF"/>
<path d="M397.983 73C397.383 73 396.879 72.76 396.471 72.28C396.087 71.8 395.895 71.212 395.895 70.516C395.895 70.06 396.003 69.652 396.219 69.292L401.763 60.616C402.027 60.208 402.243 59.92 402.411 59.752C402.579 59.584 402.759 59.464 402.951 59.392H397.911C396.303 59.392 395.499 58.66 395.499 57.196C395.499 55.732 396.303 55 397.911 55H406.803C407.451 55 407.991 55.24 408.423 55.72C408.855 56.2 409.071 56.788 409.071 57.484C409.071 57.94 408.963 58.348 408.747 58.708L402.879 67.456C402.447 68.128 401.955 68.512 401.403 68.608H407.523C409.131 68.608 409.935 69.364 409.935 70.876C409.935 72.292 409.131 73 407.523 73H397.983Z" fill="#A8D6FF"/>
</svg>
